<svg width="1024" height="1024" viewBox="0 0 1024 1024" fill="none" xmlns="http://www.w3.org/2000/svg">
<g clip-path="url(#clip0_28_13)">
<rect width="1024" height="1024" fill="url(#paint0_radial_28_13)"/>
<path d="M480 388C473.734 385.691 455 395 455 406.5C455 418 455.5 585.5 455.5 585.5C456.437 590.074 457.008 592.611 460 596C463.553 599.858 465.88 601.213 470.5 602.5L483 600L591 534H597H679.5V538C677.473 554.723 679.5 549.5 667 578C654.5 606.5 642.775 618.656 621 638.5C586.183 668.67 561.061 676.017 511.5 681C457.244 678.807 432.479 668.066 394.5 638.5C368.205 613.191 357.112 597.171 343.5 565.5C331.715 530.566 329.941 510.17 334.5 472.5C338.046 446.226 342.639 431.788 355 406.5C371.192 380.494 382.341 367.687 406.5 348.5C434.599 329.806 451.551 322.319 485 317C518.921 313.64 537.791 314.527 571 324.5C592.833 333.539 603.825 339.745 621 353C631.563 362.454 639.472 368.81 646.5 376C656.599 377.234 655.706 376.483 658 376C679.496 356.211 688.504 348.838 720 315C720.234 312.238 720.265 310.45 720 306.5C718.896 302.726 717.572 301.15 715 298.5C697.601 282.267 686.866 273.612 667 258.5C634.66 239.193 615.641 230.8 580 220.5C542.491 212.904 521.716 211.925 485 214.5C453.435 217.527 436.952 221.804 409 232.5C376.233 245.726 360.307 255.645 334.5 276C311.544 295.772 300.837 307.355 286 329C263.767 357.706 255.992 373.945 245 403C232.795 438.313 231.222 458.513 229 493.5C229.871 537.803 235 560.5 246.5 600C258 639.5 298 688.5 298 688.5C324.103 715.604 339.841 729.242 371.5 748.5C415.272 770.856 441.307 778.81 491 783C538.397 785.199 566.417 781.799 621 761C666.957 736.783 688.771 719.788 722.5 685C754.801 640.026 766.168 614.067 779.5 567C787.189 527.336 789.14 504.947 784.5 464.5C780.542 456.82 777.223 455.182 771 453H591C543.55 428.445 486.266 390.309 480 388Z" fill="white" stroke="white"/>
</g>
<defs>
<radialGradient id="paint0_radial_28_13" cx="0" cy="0" r="1" gradientUnits="userSpaceOnUse" gradientTransform="translate(921.493 164.174) rotate(136.983) scale(1260.34 5162.09)">
<stop offset="0.0865385" stop-color="#0268FF"/>
<stop offset="1" stop-color="#1C04F0"/>
</radialGradient>
<clipPath id="clip0_28_13">
<rect width="1024" height="1024" fill="white"/>
</clipPath>
</defs>
</svg>
